<svg width="48" height="48" viewBox="0 0 92 92" fill="none" xmlns="http://www.w3.org/2000/svg">
<path d="M27.5077 15.2895V21.4023H85.5794V33.5028L78.798 55.0228H25.5844L17.9434 0H0V6.11281H12.6207L20.2617 61.1356H83.281L91.6922 34.443V15.2895H27.5077Z" fill="#EB5757"/>
<path d="M30.752 67.3066C27.5107 67.3103 24.4032 68.5996 22.1113 70.8915C19.8193 73.1835 18.5301 76.291 18.5264 79.5323V79.5323C18.5264 82.7747 19.8145 85.8843 22.1072 88.1771C24.4 90.4698 27.5096 91.7579 30.752 91.7579C33.9945 91.7579 37.1041 90.4698 39.3969 88.1771C41.6896 85.8843 42.9777 82.7747 42.9777 79.5323V79.5323C42.974 76.291 41.6848 73.1834 39.3928 70.8915C37.1009 68.5995 33.9933 67.3103 30.752 67.3066V67.3066ZM30.752 85.6451C29.543 85.6451 28.3612 85.2866 27.3559 84.6149C26.3507 83.9432 25.5672 82.9885 25.1045 81.8715C24.6419 80.7546 24.5208 79.5255 24.7567 78.3397C24.9925 77.154 25.5747 76.0648 26.4296 75.2099C27.2845 74.355 28.3737 73.7728 29.5595 73.5369C30.7452 73.3011 31.9743 73.4221 33.0913 73.8848C34.2083 74.3474 35.163 75.1309 35.8346 76.1362C36.5063 77.1414 36.8648 78.3233 36.8648 79.5323C36.8629 81.1529 36.2183 82.7066 35.0723 83.8526C33.9264 84.9985 32.3727 85.6432 30.752 85.6451V85.6451Z" fill="#EB5757"/>
<path d="M73.5417 67.3066C70.3004 67.3103 67.1929 68.5996 64.901 70.8915C62.609 73.1835 61.3198 76.291 61.3161 79.5323C61.3161 82.7747 62.6041 85.8843 64.8969 88.1771C67.1896 90.4698 70.2993 91.7579 73.5417 91.7579C76.7842 91.7579 79.8938 90.4698 82.1865 88.1771C84.4793 85.8843 85.7673 82.7747 85.7673 79.5323C85.7637 76.291 84.4745 73.1834 82.1825 70.8915C79.8906 68.5995 76.783 67.3103 73.5417 67.3066V67.3066ZM73.5417 85.6451C72.3327 85.6451 71.1509 85.2866 70.1456 84.6149C69.1404 83.9432 68.3569 82.9885 67.8942 81.8715C67.4316 80.7546 67.3105 79.5255 67.5464 78.3397C67.7822 77.154 68.3644 76.0648 69.2193 75.2099C70.0742 74.355 71.1634 73.7728 72.3492 73.5369C73.5349 73.3011 74.764 73.4221 75.881 73.8848C76.998 74.3474 77.9527 75.1309 78.6243 76.1362C79.296 77.1414 79.6545 78.3233 79.6545 79.5323C79.6526 81.1529 79.008 82.7066 77.862 83.8526C76.716 84.9985 75.1623 85.6432 73.5417 85.6451V85.6451Z" fill="#EB5757"/>
</svg>
