<svg width="48" height="48" viewBox="0 0 92 92" fill="none" xmlns="http://www.w3.org/2000/svg">
<path d="M78.2642 13.428C69.6664 4.8302 58.0052 0 45.8461 0C33.687 0 22.0258 4.8302 13.428 13.428C4.8302 22.0258 0 33.687 0 45.8461C0 58.0052 4.8302 69.6664 13.428 78.2642C22.0258 86.862 33.687 91.6922 45.8461 91.6922C58.0052 91.6922 69.6664 86.862 78.2642 78.2642C86.862 69.6664 91.6922 58.0052 91.6922 45.8461C91.6922 33.687 86.862 22.0258 78.2642 13.428V13.428ZM45.8461 85.5473C23.9552 85.5473 6.14488 67.7374 6.14488 45.8461C6.14488 23.9548 23.9548 6.14488 45.8461 6.14488C67.7374 6.14488 85.5473 23.9548 85.5473 45.8461C85.5473 67.7374 67.7374 85.5473 45.8461 85.5473Z" fill="#EB5757"/>
<path d="M38.937 55.4585L24.8399 41.3615L20.4949 45.7065L38.937 64.1486L71.1013 31.9846L66.7561 27.6396L38.937 55.4585Z" fill="#EB5757"/>
</svg>
