<svg width="48" height="48" viewBox="0 0 92 65" fill="none" xmlns="http://www.w3.org/2000/svg">
<path d="M81.3547 2.60692C80.7907 1.80217 80.0411 1.14511 79.1694 0.691335C78.2978 0.237561 77.3296 0.00042872 76.3469 0H6.11281C4.49215 0.00182017 2.93839 0.646432 1.79241 1.79241C0.646431 2.93839 0.00182017 4.49215 0 6.11281V53.4871H7.8477C8.38473 56.4867 9.95947 59.2019 12.2964 61.1575C14.6333 63.1132 17.5835 64.1848 20.6307 64.1848C23.678 64.1848 26.6282 63.1132 28.9651 61.1575C31.302 59.2019 32.8768 56.4867 33.4138 53.4871H56.7502C57.2872 56.4867 58.862 59.2019 61.1989 61.1575C63.5358 63.1132 66.486 64.1848 69.5332 64.1848C72.5805 64.1848 75.5307 63.1132 77.8676 61.1575C80.2045 59.2019 81.7793 56.4867 82.3163 53.4871H91.6922V18.82C91.6936 17.8792 91.4042 16.9609 90.8635 16.1909L81.3547 2.60692ZM31.3282 6.11281H58.8358V24.4512H31.3282V6.11281ZM6.11281 6.11281H25.2153V24.4512H6.11281V6.11281ZM20.6307 58.0717C19.2706 58.0717 17.941 57.6684 16.8101 56.9127C15.6792 56.1571 14.7978 55.0831 14.2773 53.8265C13.7568 52.5699 13.6206 51.1872 13.886 49.8532C14.1513 48.5192 14.8063 47.2938 15.768 46.3321C16.7298 45.3703 17.9551 44.7154 19.2891 44.45C20.6231 44.1847 22.0058 44.3209 23.2624 44.8414C24.519 45.3619 25.593 46.2433 26.3487 47.3742C27.1043 48.5051 27.5077 49.8347 27.5077 51.1948C27.5056 53.0181 26.7805 54.766 25.4912 56.0553C24.202 57.3445 22.454 58.0697 20.6307 58.0717V58.0717ZM69.5332 58.0717C68.1731 58.0717 66.8435 57.6684 65.7126 56.9127C64.5817 56.1571 63.7003 55.0831 63.1798 53.8265C62.6593 52.5699 62.5231 51.1872 62.7885 49.8532C63.0538 48.5192 63.7088 47.2938 64.6705 46.3321C65.6323 45.3703 66.8576 44.7154 68.1916 44.45C69.5256 44.1847 70.9083 44.3209 72.1649 44.8414C73.4215 45.3619 74.4955 46.2433 75.2512 47.3742C76.0068 48.5051 76.4102 49.8347 76.4102 51.1948C76.4081 53.0181 75.6829 54.766 74.3937 56.0553C73.1045 57.3445 71.3565 58.0697 69.5332 58.0717V58.0717ZM85.5794 47.3743H81.9487C81.1319 44.7191 79.4853 42.3956 77.2507 40.7451C75.0161 39.0946 72.3113 38.204 69.5332 38.204C66.7552 38.204 64.0503 39.0946 61.8157 40.7451C59.5812 42.3956 57.9346 44.7191 57.1177 47.3743H33.0462C32.2294 44.7191 30.5828 42.3956 28.3482 40.7451C26.1136 39.0946 23.4088 38.204 20.6307 38.204C17.8527 38.204 15.1478 39.0946 12.9133 40.7451C10.6787 42.3956 9.03208 44.7191 8.21524 47.3743H6.11281V30.5641H85.5794V47.3743ZM85.5794 24.4512H64.9486V6.11281H76.3469L85.5794 19.3018V24.4512Z" fill="#EB5757"/>
</svg>
